<svg xmlns="http://www.w3.org/2000/svg" width="24.504" height="24.504" viewBox="0 0 24.504 24.504"><g transform="translate(-387 -8)"><g transform="translate(387 8)"><path d="M32.221,24.079l1.5-1.469a2,2,0,0,1,.688-3.876H37.6l1.813-1.813v-.188h-3v-2h-2v2a4,4,0,0,0-2.188,7.345Z" transform="translate(-23.157 -11.484)" fill="#12161f"/><path d="M41.515,48.653l-1.5,1.469A2,2,0,0,1,39.327,54H36.139L34.326,55.81V56h3v2h2V56a4,4,0,0,0,2.188-7.345Z" transform="translate(-26.075 -36.745)" fill="#12161f"/><path d="M14.252,2A12.252,12.252,0,1,0,26.5,14.252,12.252,12.252,0,0,0,14.252,2Zm0,22.253A10,10,0,0,1,7.907,22l2.344-2.344.406-.406L22,7.907a10.019,10.019,0,0,1-7.751,16.346Zm0-20A10,10,0,0,1,20.6,6.5L18.252,8.845l-.406.406L6.5,20.6A10.019,10.019,0,0,1,14.252,4.25Z" transform="translate(-2 -2)" fill="#12161f"/></g></g></svg>