<svg xmlns="http://www.w3.org/2000/svg" width="50.035" height="48.419" viewBox="0 0 50.035 48.419"><path d="M16.1,40.674a1.154,1.154,0,0,1,.353-1.616l7.876-5.1V24.568a1.161,1.161,0,0,1,2.322,0v9.391l7.876,5.1a1.154,1.154,0,0,1,.353,1.616,1.093,1.093,0,0,1-.959.5.881.881,0,0,1-.606-.2l-7.826-5-7.775,5.049a.97.97,0,0,1-.606.2A1.371,1.371,0,0,1,16.1,40.674ZM25.088,17.3c-1.515-2.07.1-2.171.4-2.171h0c.3,0,1.868.1.4,2.171l.757,3.383h7.422V18.256a1.794,1.794,0,0,0-.606-1.313,26.346,26.346,0,0,0-5.049-3.231c-.05-.05-.1-.1-.1-.151V10.128a1.648,1.648,0,0,0,.707-1.313V5.281A3.168,3.168,0,0,0,25.845,2.1h-.757a3.168,3.168,0,0,0-3.181,3.181V8.815a1.576,1.576,0,0,0,.707,1.313v3.433c0,.05-.05.1-.1.151a28.068,28.068,0,0,0-5.049,3.231,1.628,1.628,0,0,0-.606,1.313V20.68h7.472Zm13.935,22.67V43.4c0,.05-.05.1-.1.151a28.067,28.067,0,0,0-5.049,3.231,1.628,1.628,0,0,0-.606,1.313v2.423H40.74l.757-3.383c-1.515-2.07.1-2.171.4-2.171h0c.3,0,1.868.1.4,2.171l.757,3.383h7.472V48.1a1.794,1.794,0,0,0-.606-1.313,26.347,26.347,0,0,0-5.049-3.231c-.05-.05-.1-.1-.1-.151V39.967a1.648,1.648,0,0,0,.707-1.313V35.12A3.168,3.168,0,0,0,42.3,31.939H41.5a3.168,3.168,0,0,0-3.181,3.181v3.534A1.587,1.587,0,0,0,39.023,39.967ZM8.73,47.086c-1.515-2.07.1-2.171.4-2.171h0c.3,0,1.868.1.4,2.171l.757,3.383h7.472V48.045a1.794,1.794,0,0,0-.606-1.313A26.347,26.347,0,0,0,12.112,43.5c-.05-.05-.1-.1-.1-.151V39.916a1.648,1.648,0,0,0,.707-1.313V35.069a3.168,3.168,0,0,0-3.181-3.181H8.73a3.168,3.168,0,0,0-3.181,3.181V38.6a1.576,1.576,0,0,0,.707,1.313V43.35c0,.05-.05.1-.1.151a28.068,28.068,0,0,0-5.049,3.231A1.628,1.628,0,0,0,.5,48.045v2.423H7.972Z" transform="translate(-0.5 -2.1)" fill="#de356b"/></svg>