<svg xmlns="http://www.w3.org/2000/svg" width="28.476" height="47.914" viewBox="0 0 28.476 47.914"><g transform="translate(0 0)"><path d="M46.792,2.5H25.284A3.491,3.491,0,0,0,21.8,5.984V46.93a3.491,3.491,0,0,0,3.484,3.484H46.792a3.491,3.491,0,0,0,3.484-3.484V5.984A3.491,3.491,0,0,0,46.792,2.5ZM33.11,5.075h5.806a.808.808,0,0,1,0,1.616H33.11a.8.8,0,0,1-.808-.808A.768.768,0,0,1,33.11,5.075ZM35.987,47.89a2.322,2.322,0,1,1,2.322-2.322A2.316,2.316,0,0,1,35.987,47.89ZM46.944,40.72H25.082V9.266H46.944Z" transform="translate(-21.8 -2.5)" fill="#de356b"/><path d="M34.306,36.454a.56.56,0,0,0,.555-.555V33.424a1.411,1.411,0,0,1,1.414-1.414h2.474a.555.555,0,1,0,0-1.111H36.275A2.586,2.586,0,0,0,33.7,33.475v2.474A.568.568,0,0,0,34.306,36.454Z" transform="translate(-27.692 -16.561)" fill="#de356b"/><path d="M55.706,31.961H58.18a1.411,1.411,0,0,1,1.414,1.414v2.474a.555.555,0,1,0,1.111,0V33.375A2.586,2.586,0,0,0,58.129,30.8H55.655a.56.56,0,0,0-.555.555A.652.652,0,0,0,55.706,31.961Z" transform="translate(-38.287 -16.512)" fill="#de356b"/><path d="M60.2,52.2a.56.56,0,0,0-.555.555v2.474a1.411,1.411,0,0,1-1.414,1.414H55.755a.555.555,0,0,0,0,1.111h2.474A2.586,2.586,0,0,0,60.8,55.179V52.7A.568.568,0,0,0,60.2,52.2Z" transform="translate(-38.337 -27.107)" fill="#de356b"/><path d="M36.323,57.954H38.8a.555.555,0,1,0,0-1.111H36.323a1.411,1.411,0,0,1-1.414-1.414V52.955a.555.555,0,0,0-1.111,0v2.474A2.5,2.5,0,0,0,36.323,57.954Z" transform="translate(-27.74 -27.206)" fill="#de356b"/><path d="M38.5,41.406A5.806,5.806,0,1,0,44.306,35.6,5.807,5.807,0,0,0,38.5,41.406Zm7.674-2.171a.858.858,0,1,1-.858.858A.851.851,0,0,1,46.174,39.235Zm-1.868,3.989a1.539,1.539,0,0,0,1.262-.555.593.593,0,0,1,.909.757,2.936,2.936,0,0,1-4.342,0,.576.576,0,0,1,.909-.707A1.78,1.78,0,0,0,44.306,43.224Zm-1.868-3.989a.858.858,0,1,1-.858.858A.8.8,0,0,1,42.438,39.235Z" transform="translate(-30.068 -18.888)" fill="#de356b"/></g></svg>