<svg xmlns="http://www.w3.org/2000/svg" width="42.411" height="34.332" viewBox="0 0 42.411 34.332"><g transform="translate(0 0)"><path d="M8,968.362v6.074H50.411v-6.074Zm9.593,1.515a1.515,1.515,0,1,1-1.515,1.515A1.515,1.515,0,0,1,17.593,969.876Zm23.225,0a1.515,1.515,0,1,1-1.515,1.515A1.515,1.515,0,0,1,40.818,969.876ZM8,976.456v26.239H50.411V976.456Zm29.284,2.509a10.6,10.6,0,1,1-10.6,10.587,10.612,10.612,0,0,1,10.6-10.587Zm0,2.02a8.583,8.583,0,1,0,8.583,8.567,8.563,8.563,0,0,0-8.583-8.567Zm0,1.5a1.053,1.053,0,0,1,1.01,1.01v3.755a2.526,2.526,0,0,1,1.294,1.294h3.755a1.01,1.01,0,1,1,0,2.02H39.587a2.518,2.518,0,1,1-3.313-3.313v-3.755A1.114,1.114,0,0,1,37.284,982.483Zm-24.74.016H23.652a1.01,1.01,0,1,1,0,2.02H12.544a1.01,1.01,0,1,1,0-2.02Zm0,4.039H23.652a1.01,1.01,0,1,1,0,2.02H12.544a1.01,1.01,0,1,1,0-2.02Zm0,4.039H23.652a1.01,1.01,0,1,1,0,2.02H12.544a1.01,1.01,0,1,1,0-2.02Zm0,4.039h8.583a1.01,1.01,0,1,1,0,2.02H12.544a1.01,1.01,0,1,1,0-2.02Z" transform="translate(-8 -968.362)" fill="#de356b"/></g></svg>